<svg xmlns="http://www.w3.org/2000/svg" viewBox="0 0 616 678" fill="currentColor" role="img" aria-label="Adyton">
<g transform="translate(0.000000,678.000000) scale(0.100000,-0.100000)"
fill="currentColor" stroke="none">
<path d="M2145 6650 c-266 -6 -272 -7 -425 -43 -139 -32 -1027 -230 -1302
-289 l-108 -23 0 -207 0 -208 2770 0 2770 0 -2 207 -3 208 -125 27 c-355 78
-486 107 -960 214 l-515 116 -915 2 c-503 1 -1036 -1 -1185 -4z M532 5493 l3
-208 2545 0 2545 0 3 208 2 207 -2550 0 -2550 0 2 -207z M590 5031 l0 -88 50
-77 51 -76 533 0 533 0 46 71 c48 73 52 92 49 202 l-2 57 -630 0 -630 0 0 -89z
M4306 5089 c-3 -17 -6 -56 -6 -85 0 -47 6 -63 51 -134 l51 -80 533 0 532 0 52
79 52 78 -3 84 -3 84 -626 3 -626 2 -7 -31z M1183 4663 l-453 -3 0 -1455 0
-1455 38 0 c324 -1 894 -2 915 -1 l27 1 -2 1458 -3 1457 -35 0 c-19 1 -239 -1
-487 -2z m-193 -193 c13 -8 15 -159 15 -1258 0 -1044 -2 -1252 -14 -1265 -16
-20 -52 -22 -69 -5 -17 17 -17 2509 0 2526 14 14 47 15 68 2z m269 1 c12 -8
14 -190 12 -1262 -1 -875 -5 -1257 -13 -1266 -13 -16 -50 -17 -66 -1 -17 17
-17 2509 0 2526 14 14 47 15 67 3z m275 0 c8 -12 8 -2505 0 -2525 -7 -19 -54
-22 -72 -4 -17 17 -17 2509 0 2526 14 14 64 16 72 3z M4450 3209 c0 -1379 1
-1457 18 -1461 13 -3 805 -2 935 1 l27 1 -2 1456 -3 1455 -488 2 -487 2 0
-1456z m259 1257 c8 -10 10 -349 9 -1267 l-3 -1254 -29 -10 c-24 -8 -31 -6
-47 14 -18 23 -19 61 -19 1258 0 832 3 1241 10 1254 13 22 62 26 79 5z m271
-5 c7 -13 10 -422 10 -1253 0 -1100 -2 -1236 -16 -1256 -18 -26 -46 -28 -68
-6 -14 14 -16 142 -16 1263 0 956 3 1250 12 1259 19 19 66 15 78 -7z m270 0
c16 -30 14 -2503 -2 -2519 -17 -17 -54 -15 -72 4 -14 14 -16 141 -16 1255 0
836 3 1247 10 1260 7 12 21 19 40 19 19 0 33 -7 40 -19z M2745 4271 c-453
-202 -537 -241 -562 -257 l-23 -14 0 -468 c0 -475 5 -557 40 -669 97 -315 324
-563 724 -793 151 -87 154 -87 306 1 426 243 643 489 742 839 20 71 22 102 25
572 3 328 1 503 -6 516 -6 11 -52 37 -103 60 -90 39 -478 212 -686 306 -56 25
-112 46 -125 46 -12 0 -161 -62 -332 -139z m468 -584 c61 -36 110 -96 130
-158 37 -112 13 -206 -74 -291 l-59 -58 25 -198 c14 -109 25 -211 25 -225 l0
-27 -179 0 c-99 0 -182 3 -184 8 -3 4 6 88 18 187 31 237 33 267 15 273 -30
10 -90 86 -110 139 -52 138 5 287 135 354 55 28 66 30 136 27 60 -4 86 -10
122 -31z M632 1546 l-50 -63 -2 -89 c-1 -49 -2 -95 -1 -101 1 -10 136 -13 640
-13 502 0 640 3 643 13 2 6 4 50 3 97 l0 85 -50 67 -50 67 -542 1 -541 0 -50
-64z M4387 1593 c-8 -10 -34 -43 -56 -73 l-41 -54 0 -93 0 -93 645 0 645 0 0
95 0 95 -52 70 -52 70 -537 0 c-498 0 -537 -1 -552 -17z M357 1109 c-3 -12 -5
-96 -3 -188 l3 -166 2721 -3 2722 -2 0 190 0 190 -2719 0 -2719 0 -5 -21z
M120 355 l0 -235 2958 2 2957 3 3 233 2 232 -2960 0 -2960 0 0 -235z"/>
</g>
</svg>
